<?xml version="1.0" standalone="no"?>
<!DOCTYPE svg PUBLIC "-//W3C//DTD SVG 20010904//EN"
 "http://www.w3.org/TR/2001/REC-SVG-20010904/DTD/svg10.dtd">
<svg version="1.0" xmlns="http://www.w3.org/2000/svg"
 width="122.000000pt" height="122.000000pt" viewBox="0 0 122.000000 122.000000"
 preserveAspectRatio="xMidYMid meet">
<metadata>
Created by potrace 1.14, written by Peter Selinger 2001-2017
</metadata>
<g transform="translate(0.000000,122.000000) scale(0.100000,-0.100000)"
fill="#000000" stroke="none">
<path d="M445 1201 c-3 -6 0 -14 7 -20 66 -53 89 -76 94 -95 4 -19 -67 -242
-95 -294 -6 -11 -11 -30 -11 -42 0 -37 42 -22 57 20 6 19 27 78 46 130 l35 95
14 -35 c8 -19 36 -93 62 -165 89 -244 117 -319 122 -326 6 -11 105 29 155 63
25 16 39 15 39 -3 0 -5 -36 -34 -80 -65 -60 -42 -80 -61 -80 -78 0 -13 16 -69
35 -125 19 -56 35 -110 35 -121 0 -51 -41 -90 -95 -90 -20 0 -25 -5 -25 -25
l0 -25 225 0 225 0 0 93 c0 74 -5 105 -26 162 -14 39 -46 128 -71 199 l-46
128 37 32 c27 22 35 36 31 49 -11 26 -31 21 -56 -14 -16 -23 -24 -28 -29 -18
-5 8 -40 104 -80 214 -40 110 -86 237 -103 283 l-30 82 -193 0 c-110 0 -195
-4 -199 -9z"/>
<path d="M176 733 c-2 -3 -41 -5 -85 -6 l-82 -1 2 -58 c5 -133 122 -274 274
-330 80 -29 235 -31 314 -5 53 18 137 65 129 72 -2 3 -20 7 -38 9 -19 3 -51 8
-70 10 -95 14 -270 69 -258 82 3 3 22 -2 42 -10 68 -28 314 -61 331 -45 9 10
-84 117 -132 152 -104 76 -236 125 -351 130 -39 2 -74 2 -76 0z m164 -213 c8
-5 11 -10 5 -10 -5 0 -17 5 -25 10 -8 5 -10 10 -5 10 6 0 17 -5 25 -10z"/>
<path d="M235 204 c-44 -99 -86 -140 -151 -150 -29 -4 -44 -12 -47 -24 -3 -11
-2 -21 1 -24 3 -3 106 -6 229 -6 l223 0 0 25 c0 21 -5 25 -28 25 -46 0 -122
30 -138 55 -17 26 -22 94 -11 148 7 35 6 37 -16 37 -20 0 -29 -13 -62 -86z"/>
</g>
</svg>
