<svg width="177" height="210" viewBox="0 0 177 210" fill="none" xmlns="http://www.w3.org/2000/svg">
<path d="M109.5 210C107.5 210 105.8 209.3 104.4 207.9C103 206.5 102.3 204.8 102.3 202.8V164.4H7.2C5.2 164.4 3.5 163.7 2.1 162.3C0.7 160.9 3.57628e-07 159.2 3.57628e-07 157.2V136.8C3.57628e-07 133.6 1.1 130.6 3.3 127.8L91.8 5.09999C92.8 3.49999 94.3 2.29999 96.3 1.49998C98.3 0.499985 100.5 -1.43051e-05 102.9 -1.43051e-05H135.6C137.8 -1.43051e-05 139.5 0.699989 140.7 2.09999C142.1 3.29999 142.8 4.99999 142.8 7.19998V129H169.5C171.7 129 173.5 129.7 174.9 131.1C176.3 132.3 177 134 177 136.2V157.2C177 159.2 176.3 160.9 174.9 162.3C173.5 163.7 171.8 164.4 169.8 164.4H142.8V202.8C142.8 204.8 142.1 206.5 140.7 207.9C139.5 209.3 137.8 210 135.6 210H109.5ZM103.2 130.2V43.5L41.7 130.2H103.2Z" fill="#19191B"/>
</svg>
