<?xml version="1.0" encoding="utf-8"?>
<!-- Svg Vector Icons : http://www.onlinewebfonts.com/icon -->
<!DOCTYPE svg PUBLIC "-//W3C//DTD SVG 1.1//EN" "http://www.w3.org/Graphics/SVG/1.1/DTD/svg11.dtd">
<svg version="1.1" xmlns="http://www.w3.org/2000/svg" xmlns:xlink="http://www.w3.org/1999/xlink" x="0px" y="0px" viewBox="0 0 1000 1000" enable-background="new 0 0 1000 1000" xml:space="preserve">
<metadata> Svg Vector Icons : http://www.onlinewebfonts.com/icon </metadata>
<g><g transform="translate(0.000000,512.000000) scale(0.100000,-0.100000)"><path d="M4102.9,4977.8c-80.5-40.2-111.1-84.3-442.6-607.3l-354.5-563.3l-115-51.7c-61.3-26.8-149.4-74.7-193.5-101.5c-46-28.7-86.2-51.7-90-51.7c-5.8,0-47.9,51.7-97.7,113l-86.2,115l277.8,212.7c153.3,116.9,285.5,229.9,297,249.1c11.5,23,15.3,92,5.7,176.3c-9.6,116.9-21.1,147.5-65.1,191.6c-28.7,30.7-63.2,53.6-78.6,53.6c-13.4,0-329.5-34.5-699.3-74.7l-676.3-74.7l-285.5-274c-159-149.4-297-297-310.4-325.7c-38.3-95.8-9.6-137.9,193.5-287.4c178.2-132.2,203.1-160.9,410-450.2l220.3-306.6L1815.3,2719c-107.3-109.2-226.1-241.4-262.5-295.1l-65.1-95.8v-3333.7v-3333.7l53.6-109.2c61.3-124.5,170.5-231.8,298.9-291.2l88.1-40.2h3228.4H8385l109.2,53.6c124.5,61.3,231.8,170.5,291.2,298.9l40.2,88.1v4445v4445l-53.6,109.2c-63.2,128.4-172.4,247.2-285.5,306.6l-82.4,44.1l-2107.5,5.7l-2107.5,3.8L4102.9,4977.8z M6900.2,4288.1c-42.1-67.1-130.3-205-197.3-306.6l-118.8-187.8H5304.2c-705.1,0-1277.9,7.7-1274.1,15.3c3.8,9.6,88.1,147.5,187.8,306.5l182,291.2h1289.4h1287.5L6900.2,4288.1z M2980.2,1891.3c32.6-36.4,325.7-375.5,653.3-756.8l592-693.6h931.2l929.2,1.9l632.3,737.6c348.7,406.2,647.6,747.2,664.8,756.8c95.8,51.7,226.1-24.9,226.1-134.1c0-49.8-99.6-176.3-613.1-772.1l-611.2-714.6l-1.9-1274.1v-1274.1l613.1-712.7c515.4-599.7,613.1-724.2,613.1-772.1c0-105.4-115-182-216.5-141.8c-15.3,5.8-320,350.6-678.2,766.4l-647.6,754.9h-912h-912l-611.2-712.7c-335.3-392.8-634.2-737.6-662.9-766.4c-97.7-101.5-264.4-38.3-264.4,97.7c0,65.1-42.1,13.4,722.3,906.2l503.9,586.3v1268.3V310.6l-503.9,586.3c-764.5,892.8-722.3,841.1-722.3,906.2c0,78.6,74.7,151.4,155.2,151.4C2903.6,1954.5,2936.1,1937.3,2980.2,1891.3z"/><path d="M4237.1-957.7v-1072.9h919.7h919.6v1072.9V115.2h-919.6h-919.7V-957.7z"/></g></g>
</svg>