<?xml version="1.0" encoding="UTF-8" standalone="no"?>
<svg
   xmlns:dc="http://purl.org/dc/elements/1.1/"
   xmlns:cc="http://creativecommons.org/ns#"
   xmlns:rdf="http://www.w3.org/1999/02/22-rdf-syntax-ns#"
   xmlns:svg="http://www.w3.org/2000/svg"
   xmlns="http://www.w3.org/2000/svg"
   xmlns:sodipodi="http://sodipodi.sourceforge.net/DTD/sodipodi-0.dtd"
   xmlns:inkscape="http://www.inkscape.org/namespaces/inkscape"
   inkscape:version="1.0 (4035a4fb49, 2020-05-01)"
   sodipodi:docname="leaf1.svg"
   xml:space="preserve"
   style="enable-background:new 0 0 117.93 122.88"
   viewBox="0 0 117.93 122.88"
   y="0px"
   x="0px"
   id="Layer_1"
   version="1.1"
   width="20"
   height="20"
><metadata
     id="metadata13"><rdf:RDF><cc:Work
         rdf:about=""><dc:format>image/svg+xml</dc:format><dc:type
           rdf:resource="http://purl.org/dc/dcmitype/StillImage" /><dc:title></dc:title></cc:Work></rdf:RDF></metadata><defs
     id="defs11" /><sodipodi:namedview
     inkscape:current-layer="g6"
     inkscape:window-maximized="1"
     inkscape:window-y="-8"
     inkscape:window-x="-8"
     inkscape:cy="52.575544"
     inkscape:cx="45.300091"
     inkscape:zoom="4.8912824"
     showgrid="false"
     id="namedview9"
     inkscape:window-height="1017"
     inkscape:window-width="1920"
     inkscape:pageshadow="2"
     inkscape:pageopacity="0"
     guidetolerance="10"
     gridtolerance="10"
     objecttolerance="10"
     borderopacity="1"
     bordercolor="#666666"
     pagecolor="#ffffff" /><style
     id="style2"
     type="text/css">.st0{fill-rule:evenodd;clip-rule:evenodd;}</style><g
     id="g6"><path
       style="fill:#90b52d;fill-opacity:1"
       id="path4"
       d="M104.38,97.86c5.03,6.72,9.37,12.3,11.72,18.72c2.29,6.26,3.22,9.11-1.98,2.63 c-4.84-6.04-9.36-11.91-15.98-17.48c-0.47,0.11-0.96,0.21-1.49,0.32C36.81,113.93-6.78,87.01,0.87,0 c46.1,15.96,111.38,9.48,104.62,91.25C105.25,94.29,105.02,96.37,104.38,97.86L104.38,97.86z M88.32,84.78 c-15.04-32.4-53.68-43.51-72.85-65.67C36.28,59.7,47.63,57.91,88.32,84.78L88.32,84.78L88.32,84.78z"
       class="st0" /></g></svg>
